# xmcd
#
# Track frame offsets: 
#        150
#        6090
#        17430
#        17781
#        29256
#        45888
#        66705
#        68190
#        100212
#        101751
#        121218
#        121677
#        137256
#        138471
#        155265
#        157884
#        182805
#        183183
#        191553
#        192714
#        211155
#        213774
#        228813
#        234618
#        251142
#        254031
#        268314
#        272040
#        284217
#        285783
#        296880
#        298068
#        320181
#        321018
#
# Disc length: 4551 seconds
#
# Revision: 0
# Processed by: cddbd v1.5.2PL0 Copyright (c) Steve Scherf et al.
# Submitted via: ExactAudioCopy v0.95b3
#
DISCID=0411c522
DTITLE=The Beatles  - The Days In Their Life - Vol.16  FLAC
DYEAR=1900
DGENRE=
TTITLE0=Narrative
TTITLE1=Beaucoups Of Blues (Ringo Starr)
TTITLE2=Narrative
TTITLE3=Fastest Growing Heartache In The West (Ringo Starr)
TTITLE4=Narrative
TTITLE5=My Sweet Lord (George Harrison)
TTITLE6=Narrative
TTITLE7=Isn't It A Pity (George Harrison)
TTITLE8=Narrative
TTITLE9=What Is Life (George Harrison)
TTITLE10=Narrative
TTITLE11=If Not For You (George Harrison)
TTITLE12=Narrative
TTITLE13=All Things Must Pass (George Harrison)
TTITLE14=Narrative
TTITLE15=Mother (John Lennon)
TTITLE16=Narrative
TTITLE17=Hold On (John Lennon)
TTITLE18=Narrative
TTITLE19=God (John Lennon)
TTITLE20=Narrative
TTITLE21=Love (John Lennon)
TTITLE22=Narrative
TTITLE23=Another Day (Paul McCartney)
TTITLE24=Narrative
TTITLE25=Power To The People (John Lennon)
TTITLE26=Narrative
TTITLE27=It Don't Come Easy (Ringo Starr)
TTITLE28=Narrative
TTITLE29=Ram On (Paul And Linda McCartney)
TTITLE30=Narrative
TTITLE31=Uncle AlbertAdmiral Halsey (Paul And Linda McCartney)
TTITLE32=Narrative
TTITLE33=The Back Seat Of My Car (Paul And Linda McCartney)
EXTD=
EXTT0=
EXTT1=
EXTT2=
EXTT3=
EXTT4=
EXTT5=
EXTT6=
EXTT7=
EXTT8=
EXTT9=
EXTT10=
EXTT11=
EXTT12=
EXTT13=
EXTT14=
EXTT15=
EXTT16=
EXTT17=
EXTT18=
EXTT19=
EXTT20=
EXTT21=
EXTT22=
EXTT23=
EXTT24=
EXTT25=
EXTT26=
EXTT27=
EXTT28=
EXTT29=
EXTT30=
EXTT31=
EXTT32=
EXTT33=
PLAYORDER=
